# xmcd
#
# Track frame offsets:
#	150
#	15632
#	28071
#	42793
#	55593
#	60190
#
# Disc length: 1006 seconds
#
# Revision: 1
# Processed by: cddbd v1.5.2PL0 Copyright (c) Steve Scherf et al.
# Submitted via: audiograbber 1.83.01
#
DISCID=3c03ec06
DTITLE=Various Artist - Hesen Robotti Disco Vol 4
DYEAR=2006
DGENRE=Pop
TTITLE0=T. Bird - Raparperin Alla
TTITLE1=Bounce Brothers - Värilaulu
TTITLE2=Tese ja Jesper - Aja Hiljaa Isi
TTITLE3=Union Feat. J.R.Nova - Sininen Uni
TTITLE4=Tonto - Hesburger
TTITLE5=T. Bird - Raparperin Alla (Karaoke)
EXTD=TR.
EXTT0=
EXTT1=
EXTT2=
EXTT3=
EXTT4=
EXTT5=
PLAYORDER=
